<svg width="50" height="50" viewBox="0 0 50 50" fill="none" xmlns="http://www.w3.org/2000/svg">
<path d="M8.7525 10H42.2475C45.4074 10 47 11.475 47 14.475V35.525C47 38.5 45.4074 40 42.2475 40H8.7525C5.59259 40 4 38.5 4 35.525V14.475C4 11.475 5.59259 10 8.7525 10ZM25.4874 31.5L42.5256 17.675C43.1323 17.175 43.6126 16.025 42.8542 15C42.1211 13.975 40.7813 13.95 39.8965 14.575L25.4874 24.225L11.1035 14.575C10.2187 13.95 8.8789 13.975 8.1458 15C7.38742 16.025 7.86772 17.175 8.47443 17.675L25.4874 31.5Z" fill="#B6E802"/>
</svg>
