<svg width="50" height="50" viewBox="0 0 50 50" fill="none" xmlns="http://www.w3.org/2000/svg">
<path d="M40.5415 5.76904C41.675 5.76904 42.7619 6.21929 43.5634 7.02072C44.3648 7.82216 44.8151 8.90914 44.8151 10.0425V39.9571C44.8151 41.0905 44.3648 42.1775 43.5634 42.9789C42.7619 43.7803 41.675 44.2306 40.5415 44.2306H10.627C9.49362 44.2306 8.40663 43.7803 7.6052 42.9789C6.80376 42.1775 6.35352 41.0905 6.35352 39.9571V10.0425C6.35352 8.90914 6.80376 7.82216 7.6052 7.02072C8.40663 6.21929 9.49362 5.76904 10.627 5.76904H40.5415ZM39.4732 38.8887V27.5639C39.4732 25.7165 38.7393 23.9447 37.4329 22.6383C36.1266 21.332 34.3548 20.5981 32.5074 20.5981C30.6911 20.5981 28.5757 21.7092 27.5501 23.3759V21.0041H21.5886V38.8887H27.5501V28.3545C27.5501 26.7092 28.8749 25.3631 30.5202 25.3631C31.3136 25.3631 32.0745 25.6782 32.6355 26.2392C33.1965 26.8002 33.5116 27.5611 33.5116 28.3545V38.8887H39.4732ZM14.6441 17.6494C15.5962 17.6494 16.5092 17.2712 17.1824 16.598C17.8557 15.9248 18.2339 15.0117 18.2339 14.0596C18.2339 12.0725 16.6313 10.4485 14.6441 10.4485C13.6864 10.4485 12.7679 10.829 12.0907 11.5062C11.4135 12.1834 11.033 13.1019 11.033 14.0596C11.033 16.0468 12.6569 17.6494 14.6441 17.6494ZM17.6142 38.8887V21.0041H11.6954V38.8887H17.6142Z" fill="#B6E802"/>
</svg>
