<svg width="50" height="50" viewBox="0 0 50 50" fill="none" xmlns="http://www.w3.org/2000/svg">
<g clip-path="url(#clip0_171_28657)">
<g clip-path="url(#clip1_171_28657)">
<path d="M45.8333 14.5832H31.25V10.4165H45.8333V14.5832ZM49.4292 35.4165C48.5083 38.1186 45.2021 41.6665 38.8021 41.6665C32.3979 41.6665 27.2104 38.0644 27.2104 29.8436C27.2104 21.6978 32.0542 17.5103 38.5979 17.5103C45.0188 17.5103 48.9396 21.2228 49.7958 26.7311C49.9583 27.7853 50.0229 29.2061 49.9938 31.1894H33.2708C33.5417 37.879 40.5271 38.0894 42.8292 35.4165H49.4292ZM33.4167 27.0832H43.7604C43.5417 23.8603 41.3938 22.4603 38.6 22.4603C35.5458 22.4603 33.8563 24.0603 33.4167 27.0832ZM13.4708 41.6415H0V10.4603H14.4854C25.8938 10.629 26.1104 21.8019 20.1521 24.8478C27.3625 27.4728 27.6042 41.6415 13.4708 41.6415ZM6.25 22.9165H13.7167C18.9417 22.9165 19.7708 16.6665 13.0667 16.6665H6.25V22.9165ZM13.3146 29.1665H6.25V35.4498H13.2104C19.575 35.4498 19.1854 29.1665 13.3146 29.1665Z" fill="#B6E802"/>
</g>
</g>
<defs>
<clipPath id="clip0_171_28657">
<rect width="50" height="50" fill="white"/>
</clipPath>
<clipPath id="clip1_171_28657">
<rect width="50" height="50" fill="white"/>
</clipPath>
</defs>
</svg>
